PathFileType	4	(X/Y/Z)	traj.trc
DataRate	CameraRate	NumFrames	NumMarkers	Units	OrigDataRate	OrigDataStartFrame	OrigNumFrames
30.00	30.00	100	1	mm	30.00	1	100
Frame#	Time	wrist		
		X1	Y1	Z1

0	0.0	100.0	900.0	200.0
1	0.10101010101010101	100.0	900.0	200.0
2	0.20202020202020202	100.00149969392442	899.992501530378	200.00149969392442
3	0.30303030303030304	100.00887636416479	899.9556181791761	200.0088763641648
4	0.40404040404040403	100.02770529933807	899.8614735033096	200.0277052993381
5	0.5050505050505051	100.0632057590995	899.6839712045025	200.0632057590995
6	0.6060606060606061	100.12024846948927	899.3987576525536	200.12024846948927
7	0.7070707070707071	100.20336311827904	898.9831844086048	200.20336311827904
8	0.8080808080808081	100.3167458503185	898.4162707484076	200.3167458503185
9	0.9090909090909091	100.46426676288193	897.6786661855904	200.46426676288195
10	1.0101010101010102	100.64947740101482	896.7526129949259	200.64947740101482
11	1.1111111111111112	100.87561825288032	895.6219087355985	200.87561825288034
12	1.2121212121212122	101.1456262451059	894.2718687744706	201.14562624510592
13	1.3131313131313131	101.46214223812986	892.6892888093508	201.46214223812987
14	1.4141414141414141	101.82751852154789	890.8624073922606	201.8275185215479
15	1.5151515151515151	102.24382630945969	888.7808684527015	202.2438263094597
16	1.6161616161616161	102.71286323581545	886.4356838209228	202.71286323581543
17	1.7171717171717171	103.23616084976243	883.8191957511879	203.23616084976246
18	1.8181818181818181	103.8149921109916	880.9250394450421	203.8149921109916
19	1.9191919191919191	104.45037888508408	877.7481055745798	204.45037888508406
20	2.0202020202020203	105.14309943885776	874.2845028057112	205.14309943885777
21	2.121212121212121	105.89369593571392	870.5315203214304	205.8936959357139
22	2.2222222222222223	106.70248193098367	866.4875903450817	206.70248193098368
23	2.323232323232323	107.5695498672746	862.1522506636271	207.56954986727462
24	2.4242424242424243	108.4947785698173	857.5261071509135	208.4947785698173
25	2.525252525252525	109.47784074181195	852.6107962909402	209.47784074181197
26	2.6262626262626263	110.51821045977488	847.4089477011257	210.51821045977488
27	2.727272727272727	111.61517066888504	841.9241466555748	211.61517066888504
28	2.8282828282828283	112.76782067833075	836.1608966083463	212.76782067833074
29	2.929292929292929	113.97508365665604	830.1245817167197	213.97508365665604
30	3.0303030303030303	115.2357141271074	823.821429364463	215.2357141271074
31	3.131313131313131	116.54830546298022	817.2584726850989	216.54830546298024
32	3.2323232323232323	117.91129738296539	810.4435130851731	217.9112973829654
33	3.3333333333333335	119.32298344649588	803.3850827675207	219.3229834464959
34	3.4343434343434343	120.78151854909329	796.0924072545336	220.78151854909328
35	3.5353535353535355	122.28492641771435	788.5753679114282	222.28492641771436
36	3.6363636363636362	123.8311071060976	780.8444644695121	223.8311071060976
37	3.7373737373737375	125.41784449010984	772.9107775494508	225.41784449010984
38	3.8383838383838382	127.0428137630928	764.7859311845361	227.04281376309277
39	3.9393939393939394	128.70358893120948	756.4820553439527	228.70358893120948
40	4.040404040404041	130.3976503087911	748.0117484560445	230.3976503087911
41	4.141414141414141	132.12239201368325	739.3880399315838	232.12239201368325
42	4.242424242424242	133.87512946259272	730.6243526870365	233.8751294625927
43	4.343434343434343	135.6531068664339	721.7344656678306	235.6531068664339
44	4.444444444444445	137.45350472567546	712.7324763716227	237.4535047256755
45	4.545454545454545	139.2734473256869	703.6327633715656	239.2734473256869
46	4.646464646464646	141.11001023208496	694.4499488395752	241.110010232085
47	4.747474747474747	142.96022778608045	685.1988610695978	242.96022778608045
48	4.848484848484849	144.8211005998245	675.8944970008777	244.8211005998245
49	4.94949494949495	146.6896030517553	666.5519847412234	246.68960305175534
50	5.05050505050505	148.56269078194484	657.1865460902758	248.56269078194484
51	5.151515151515151	150.43730818744498	647.8134590627751	250.43730818744498
52	5.252525252525253	152.3103959176345	638.4480204118274	252.31039591763448
53	5.353535353535354	154.1788983695654	629.1055081521732	254.17889836956536
54	5.454545454545454	156.03977118330943	619.801144083453	256.03977118330937
55	5.555555555555555	157.88998873730486	610.5500563134758	257.88998873730486
56	5.656565656565657	159.72655164370298	601.3672417814854	259.726551643703
57	5.757575757575758	161.54649424371436	592.267528781428	261.54649424371433
58	5.858585858585858	163.34689210295593	583.2655394852202	263.3468921029559
59	5.959595959595959	165.12486950679713	574.3756524660143	265.12486950679715
60	6.0606060606060606	166.87760695570657	565.611965221467	266.8776069557066
61	6.161616161616162	168.60234866059875	556.9882566970064	268.60234866059875
62	6.262626262626262	170.29641003818037	548.5179498090981	270.29641003818034
63	6.363636363636363	171.95718520629708	540.2140739685146	271.9571852062971
64	6.4646464646464645	173.58215447928	532.0892276036	273.58215447928
65	6.565656565656566	175.16889186329226	524.1555406835388	275.16889186329223
66	6.666666666666667	176.71507255167552	516.4246372416226	276.71507255167546
67	6.767676767676767	178.2184804202966	508.9075978985172	278.21848042029654
68	6.8686868686868685	179.67701552289398	501.6149223855303	279.6770155228939
69	6.96969696969697	181.0887015864245	494.55649206787785	281.08870158642446
70	7.070707070707071	182.45169350640967	487.7415324679519	282.45169350640964
71	7.171717171717171	183.76428484228248	481.1785757885878	283.76428484228245
72	7.2727272727272725	185.0249153127338	474.875423436331	285.02491531273375
73	7.373737373737374	186.2321782910591	468.8391085447045	286.2321782910591
74	7.474747474747475	187.3848283005048	463.075858497476	287.3848283005048
75	7.575757575757575	188.481788509615	457.5910574519251	288.481788509615
76	7.6767676767676765	189.5221582275779	452.38920886211054	289.52215822757785
77	7.777777777777778	190.50522039957258	447.4738980021373	290.5052203995725
78	7.878787878787879	191.43044910211526	442.8477544894238	291.43044910211523
79	7.979797979797979	192.2975170384062	438.5124148079691	292.29751703840617
80	8.080808080808081	193.10630303367597	434.46848483162034	293.1063030336759
81	8.181818181818182	193.85689953053208	430.7155023473396	293.8568995305321
82	8.282828282828282	194.5496200843058	427.2518995784711	294.54962008430573
83	8.383838383838384	195.18500685839825	424.0749657080088	295.1850068583982
84	8.484848484848484	195.76383811962742	421.180809401863	295.76383811962734
85	8.585858585858587	196.2871357335744	418.5643213321281	296.28713573357436
86	8.686868686868687	196.75617265993014	416.21913670034934	296.75617265993014
87	8.787878787878787	197.17248044784193	414.13759776079036	297.17248044784196
88	8.88888888888889	197.53785673125998	412.31071634370016	297.53785673126
89	8.98989898989899	197.85437272428393	410.7281363785804	297.85437272428396
90	9.09090909090909	198.1243807165095	409.3780964174525	298.1243807165095
91	9.191919191919192	198.35052156837503	408.2473921581251	298.350521568375
92	9.292929292929292	198.53573220650787	407.3213389674607	298.5357322065079
93	9.393939393939394	198.6832531190713	406.5837344046435	298.6832531190713
94	9.494949494949495	198.79663585111078	406.01682074444625	298.7966358511107
95	9.595959595959595	198.87975049990052	405.60124750049744	298.8797504999005
96	9.696969696969697	198.9367932102903	405.3160339485485	298.93679321029026
97	9.797979797979798	198.97229367005176	405.13853164974137	298.9722936700517
98	9.8989898989899	198.99112260522506	405.0443869738749	298.991122605225
99	10.0	198.99849927546543	405.00750362267297	298.9984992754654
